<svg id="Layer_1" data-name="Layer 1" xmlns="http://www.w3.org/2000/svg" viewBox="0 0 64 64"><title>care for pets</title><path d="M19.18,33.58,16.3,32.14a1.41,1.41,0,0,0-.63-.15h-.25a1.42,1.42,0,0,0-1,2.41l5.18,5.21a1.41,1.41,0,0,1,.21,1.71,1.37,1.37,0,0,1-2.24.23l-3.84-3.84a10.35,10.35,0,0,1-2.5-4l-3-8.89A1.16,1.16,0,0,0,6,25.15H6A82.62,82.62,0,0,0,7.12,38.74l.26,1.57a17.4,17.4,0,0,0,2.69,6.79l4.71,7.07a5,5,0,0,1,.68,4A1.51,1.51,0,0,0,16.93,60h5.81A5.26,5.26,0,0,0,28,54.73V47.92a16.64,16.64,0,0,0-1.69-7.3A15.64,15.64,0,0,0,19.18,33.58Z"/><path d="M56.84,24a1.16,1.16,0,0,0-1.1.79l-3,8.89a10.35,10.35,0,0,1-2.5,4l-3.84,3.84a1.37,1.37,0,0,1-2.24-.23,1.41,1.41,0,0,1,.21-1.71l5.18-5.21a1.42,1.42,0,0,0-1-2.41h-.25a1.41,1.41,0,0,0-.63.15l-2.89,1.44a15.64,15.64,0,0,0-7.13,7A16.64,16.64,0,0,0,36,47.92v6.81A5.26,5.26,0,0,0,41.26,60h5.81a1.51,1.51,0,0,0,1.46-1.87,5,5,0,0,1,.68-4l4.71-7.07a17.4,17.4,0,0,0,2.69-6.79l.26-1.57A82.62,82.62,0,0,0,58,25.15h0A1.16,1.16,0,0,0,56.84,24Z"/><path d="M40.51,25.43a8.51,8.51,0,1,0-17,0c0,4.7,3.81,6.69,8.51,6.69S40.51,30.13,40.51,25.43Z"/><path d="M22.62,10.12c-1.94,0-3.52,2.5-3.52,4.45s1.58,2.59,3.52,2.59,3.52-.65,3.52-2.59S24.56,10.12,22.62,10.12Z"/><path d="M37.87,14.57c0,1.94,1.58,2.59,3.52,2.59s3.52-.65,3.52-2.59-1.58-4.45-3.52-4.45S37.87,12.62,37.87,14.57Z"/><path d="M28.08,9.25c0,2.29,1.76,3,3.92,3s3.92-.76,3.92-3S34.17,4,32,4,28.08,7,28.08,9.25Z"/></svg>