<svg width="12" height="16" viewBox="0 0 12 16" fill="none" xmlns="http://www.w3.org/2000/svg">
<path d="M10.7063 4.70615C11.0969 4.31553 11.0969 3.68115 10.7063 3.29053C10.3156 2.8999 9.68127 2.8999 9.29065 3.29053L6.00002 6.58428L2.70627 3.29365C2.31565 2.90303 1.68127 2.90303 1.29065 3.29365C0.900024 3.68428 0.900024 4.31865 1.29065 4.70928L4.5844 7.9999L1.29377 11.2937C0.903149 11.6843 0.903149 12.3187 1.29377 12.7093C1.6844 13.0999 2.31877 13.0999 2.7094 12.7093L6.00002 9.41553L9.29377 12.7062C9.6844 13.0968 10.3188 13.0968 10.7094 12.7062C11.1 12.3155 11.1 11.6812 10.7094 11.2905L7.41565 7.9999L10.7063 4.70615Z" fill="#C3C3C3"/>
</svg>
