<svg width="430" height="166" viewBox="0 0 430 166" fill="none" xmlns="http://www.w3.org/2000/svg">
<path d="M105.725 51.6C101.035 53.56 97.395 56.5 94.805 60.42C92.285 64.34 91.025 69.065 91.025 74.595C91.025 77.185 91.27 79.005 91.76 80.055C92.25 81.035 92.495 81.595 92.495 81.735C88.715 81.735 85.88 80.965 83.99 79.425C82.17 77.815 81.26 75.19 81.26 71.55C81.26 67.07 83.08 62.73 86.72 58.53C90.43 54.26 95.155 50.83 100.895 48.24C106.635 45.58 112.375 44.25 118.115 44.25C119.095 44.25 120.495 44.32 122.315 44.46L115.595 75.75H131.03L137.75 44.46H152.87L136.175 123H121.055L129.455 83.52H114.02L105.62 123H90.5L105.725 51.6ZM170.409 123.42C165.229 123.42 161.134 122.09 158.124 119.43C155.114 116.77 153.609 112.57 153.609 106.83C153.609 102.07 154.589 96.785 156.549 90.975C158.509 85.165 161.659 80.16 165.999 75.96C170.339 71.69 175.799 69.555 182.379 69.555C191.339 69.555 195.819 75.155 195.819 86.355V86.46C196.029 86.53 196.414 86.565 196.974 86.565C199.284 86.565 201.944 85.97 204.954 84.78C207.964 83.52 210.694 82.015 213.144 80.265L214.089 83.1C212.059 85.27 209.399 87.125 206.109 88.665C202.889 90.135 199.354 91.185 195.504 91.815C194.944 98.185 193.509 103.75 191.199 108.51C188.889 113.27 185.914 116.945 182.274 119.535C178.634 122.125 174.679 123.42 170.409 123.42ZM174.609 113.97C176.289 113.97 177.969 113.025 179.649 111.135C181.329 109.175 182.799 106.55 184.059 103.26C185.319 99.9 186.229 96.19 186.789 92.13C184.899 91.71 183.954 90.24 183.954 87.72C183.954 84.85 185.039 82.96 187.209 82.05C187.069 79.74 186.719 78.165 186.159 77.325C185.599 76.415 184.619 75.96 183.219 75.96C180.909 75.96 178.669 77.64 176.499 81C174.329 84.36 172.579 88.385 171.249 93.075C169.919 97.765 169.254 101.895 169.254 105.465C169.254 108.825 169.639 111.1 170.409 112.29C171.179 113.41 172.579 113.97 174.609 113.97ZM270.312 123.63C266.042 123.63 262.892 122.51 260.862 120.27C258.902 117.96 257.922 115.125 257.922 111.765C257.922 110.295 258.097 108.65 258.447 106.83C258.797 104.94 259.147 103.12 259.497 101.37C259.917 99.62 260.197 98.5 260.337 98.01C260.897 95.56 261.422 93.145 261.912 90.765C262.402 88.385 262.647 86.46 262.647 84.99C262.647 81.42 261.387 79.635 258.867 79.635C257.047 79.635 255.437 80.545 254.037 82.365C252.637 84.115 251.517 86.425 250.677 89.295L243.537 123H228.417L236.082 86.775C236.292 85.935 236.397 85.06 236.397 84.15C236.397 81.07 235.347 79.53 233.247 79.53C231.287 79.53 229.572 80.44 228.102 82.26C226.702 84.01 225.582 86.355 224.742 89.295L217.602 123H202.482L213.612 70.5H228.732L227.577 75.96C231.147 71.97 235.417 69.975 240.387 69.975C246.547 69.975 250.152 72.985 251.202 79.005C255.052 73.055 259.917 70.08 265.797 70.08C269.367 70.08 272.202 71.06 274.302 73.02C276.402 74.98 277.452 77.955 277.452 81.945C277.452 83.975 277.207 86.25 276.717 88.77C276.227 91.22 275.527 94.23 274.617 97.8C274.057 99.97 273.532 102.105 273.042 104.205C272.622 106.235 272.412 107.845 272.412 109.035C272.412 110.435 272.727 111.52 273.357 112.29C273.987 113.06 275.072 113.445 276.612 113.445C278.712 113.445 280.392 112.71 281.652 111.24C282.912 109.7 284.172 107.355 285.432 104.205H289.842C287.252 111.905 284.242 117.085 280.812 119.745C277.452 122.335 273.952 123.63 270.312 123.63ZM305.482 123.63C300.372 123.63 296.382 122.3 293.512 119.64C290.642 116.91 289.207 112.675 289.207 106.935C289.207 102.105 290.152 96.785 292.042 90.975C293.932 85.165 297.012 80.16 301.282 75.96C305.552 71.69 310.977 69.555 317.557 69.555C325.257 69.555 329.107 72.915 329.107 79.635C329.107 83.555 327.987 87.16 325.747 90.45C323.507 93.74 320.532 96.4 316.822 98.43C313.112 100.39 309.157 101.51 304.957 101.79C304.817 103.33 304.747 104.38 304.747 104.94C304.747 110.75 306.917 113.655 311.257 113.655C313.217 113.655 315.317 113.13 317.557 112.08C319.797 111.03 321.827 109.7 323.647 108.09C321.757 118.45 315.702 123.63 305.482 123.63ZM305.692 96.75C308.352 96.68 310.837 95.805 313.147 94.125C315.527 92.445 317.417 90.31 318.817 87.72C320.287 85.06 321.022 82.295 321.022 79.425C321.022 76.555 320.147 75.12 318.397 75.12C315.947 75.12 313.497 77.36 311.047 81.84C308.667 86.25 306.882 91.22 305.692 96.75Z" fill="#FFD4D4"/>
<path d="M169.035 10.45L163.51 20.9V28H162.385V20.9L156.81 10.45H158.085L162.935 19.85L167.76 10.45H169.035ZM177.711 28.2C176.444 28.2 175.302 27.9167 174.286 27.35C173.269 26.7833 172.469 25.975 171.886 24.925C171.319 23.8583 171.036 22.6167 171.036 21.2C171.036 19.8 171.327 18.575 171.911 17.525C172.494 16.4583 173.294 15.65 174.311 15.1C175.344 14.5333 176.494 14.25 177.761 14.25C179.027 14.25 180.169 14.5333 181.186 15.1C182.202 15.65 182.994 16.45 183.561 17.5C184.144 18.55 184.436 19.7833 184.436 21.2C184.436 22.6167 184.144 23.8583 183.561 24.925C182.977 25.975 182.169 26.7833 181.136 27.35C180.119 27.9167 178.977 28.2 177.711 28.2ZM177.711 27.2C178.694 27.2 179.611 26.9833 180.461 26.55C181.327 26.1 182.019 25.425 182.536 24.525C183.052 23.625 183.311 22.5167 183.311 21.2C183.311 19.9 183.052 18.8 182.536 17.9C182.019 17 181.336 16.3333 180.486 15.9C179.636 15.45 178.719 15.225 177.736 15.225C176.752 15.225 175.836 15.45 174.986 15.9C174.152 16.3333 173.477 17 172.961 17.9C172.444 18.8 172.186 19.9 172.186 21.2C172.186 22.5167 172.436 23.625 172.936 24.525C173.452 25.425 174.127 26.1 174.961 26.55C175.811 26.9833 176.727 27.2 177.711 27.2ZM199.324 14.425V28H198.199V25.05C197.815 26.0833 197.174 26.875 196.274 27.425C195.39 27.9583 194.374 28.225 193.224 28.225C191.607 28.225 190.282 27.7333 189.249 26.75C188.232 25.75 187.724 24.275 187.724 22.325V14.425H188.824V22.25C188.824 23.8667 189.232 25.1083 190.049 25.975C190.865 26.825 191.974 27.25 193.374 27.25C194.84 27.25 196.007 26.7833 196.874 25.85C197.757 24.9167 198.199 23.5333 198.199 21.7V14.425H199.324ZM204.55 17.225C204.883 16.225 205.475 15.4667 206.325 14.95C207.175 14.4167 208.258 14.15 209.575 14.15V15.325H209.2C207.867 15.325 206.758 15.7083 205.875 16.475C204.992 17.225 204.55 18.4583 204.55 20.175V28H203.425V14.425H204.55V17.225ZM224.396 15.425H220.871V28H219.746V15.425H217.696V14.425H219.746V13.475C219.746 12.0583 220.104 11.0083 220.821 10.325C221.538 9.625 222.713 9.275 224.346 9.275V10.275C223.046 10.275 222.138 10.525 221.621 11.025C221.121 11.525 220.871 12.3417 220.871 13.475V14.425H224.396V15.425ZM238.753 14.425V28H237.628V25.05C237.244 26.0833 236.603 26.875 235.703 27.425C234.819 27.9583 233.803 28.225 232.653 28.225C231.036 28.225 229.711 27.7333 228.678 26.75C227.661 25.75 227.153 24.275 227.153 22.325V14.425H228.253V22.25C228.253 23.8667 228.661 25.1083 229.478 25.975C230.294 26.825 231.403 27.25 232.803 27.25C234.269 27.25 235.436 26.7833 236.303 25.85C237.186 24.9167 237.628 23.5333 237.628 21.7V14.425H238.753ZM243.979 17.225C244.312 16.225 244.904 15.4667 245.754 14.95C246.604 14.4167 247.687 14.15 249.004 14.15V15.325H248.629C247.295 15.325 246.187 15.7083 245.304 16.475C244.42 17.225 243.979 18.4583 243.979 20.175V28H242.854V14.425H243.979V17.225ZM258.894 18.125V19.1H249.494V18.125H258.894ZM275.879 20.3C275.879 20.9 275.863 21.35 275.829 21.65H264.104C264.138 22.8667 264.404 23.8917 264.904 24.725C265.404 25.5583 266.063 26.1833 266.879 26.6C267.696 27.0167 268.588 27.225 269.554 27.225C270.888 27.225 272.004 26.9 272.904 26.25C273.804 25.5833 274.371 24.6833 274.604 23.55H275.779C275.513 24.9333 274.829 26.0583 273.729 26.925C272.629 27.775 271.238 28.2 269.554 28.2C268.288 28.2 267.154 27.9167 266.154 27.35C265.154 26.7833 264.371 25.975 263.804 24.925C263.238 23.8583 262.954 22.6167 262.954 21.2C262.954 19.7833 263.229 18.55 263.779 17.5C264.346 16.45 265.129 15.65 266.129 15.1C267.129 14.5333 268.271 14.25 269.554 14.25C270.854 14.25 271.979 14.5333 272.929 15.1C273.896 15.65 274.629 16.3917 275.129 17.325C275.629 18.2417 275.879 19.2333 275.879 20.3ZM274.754 20.725C274.804 19.525 274.588 18.5083 274.104 17.675C273.638 16.8417 272.996 16.225 272.179 15.825C271.363 15.4083 270.479 15.2 269.529 15.2C268.579 15.2 267.696 15.4083 266.879 15.825C266.079 16.225 265.421 16.8417 264.904 17.675C264.404 18.5083 264.138 19.525 264.104 20.725H274.754ZM283.879 26.775L288.879 14.425H290.079L284.454 28H283.279L277.654 14.425H278.879L283.879 26.775ZM304.786 20.3C304.786 20.9 304.769 21.35 304.736 21.65H293.011C293.044 22.8667 293.311 23.8917 293.811 24.725C294.311 25.5583 294.969 26.1833 295.786 26.6C296.602 27.0167 297.494 27.225 298.461 27.225C299.794 27.225 300.911 26.9 301.811 26.25C302.711 25.5833 303.277 24.6833 303.511 23.55H304.686C304.419 24.9333 303.736 26.0583 302.636 26.925C301.536 27.775 300.144 28.2 298.461 28.2C297.194 28.2 296.061 27.9167 295.061 27.35C294.061 26.7833 293.277 25.975 292.711 24.925C292.144 23.8583 291.861 22.6167 291.861 21.2C291.861 19.7833 292.136 18.55 292.686 17.5C293.252 16.45 294.036 15.65 295.036 15.1C296.036 14.5333 297.177 14.25 298.461 14.25C299.761 14.25 300.886 14.5333 301.836 15.1C302.802 15.65 303.536 16.3917 304.036 17.325C304.536 18.2417 304.786 19.2333 304.786 20.3ZM303.661 20.725C303.711 19.525 303.494 18.5083 303.011 17.675C302.544 16.8417 301.902 16.225 301.086 15.825C300.269 15.4083 299.386 15.2 298.436 15.2C297.486 15.2 296.602 15.4083 295.786 15.825C294.986 16.225 294.327 16.8417 293.811 17.675C293.311 18.5083 293.044 19.525 293.011 20.725H303.661ZM309.311 17.225C309.644 16.225 310.236 15.4667 311.086 14.95C311.936 14.4167 313.019 14.15 314.336 14.15V15.325H313.961C312.627 15.325 311.519 15.7083 310.636 16.475C309.752 17.225 309.311 18.4583 309.311 20.175V28H308.186V14.425H309.311V17.225ZM329.157 15.425H325.632V28H324.507V15.425H322.457V14.425H324.507V13.475C324.507 12.0583 324.865 11.0083 325.582 10.325C326.298 9.625 327.473 9.275 329.107 9.275V10.275C327.807 10.275 326.898 10.525 326.382 11.025C325.882 11.525 325.632 12.3417 325.632 13.475V14.425H329.157V15.425ZM333.163 17.225C333.497 16.225 334.088 15.4667 334.938 14.95C335.788 14.4167 336.872 14.15 338.188 14.15V15.325H337.813C336.48 15.325 335.372 15.7083 334.488 16.475C333.605 17.225 333.163 18.4583 333.163 20.175V28H332.038V14.425H333.163V17.225ZM341.354 11.4C341.087 11.4 340.862 11.3167 340.679 11.15C340.495 10.9667 340.404 10.725 340.404 10.425C340.404 10.1417 340.495 9.90833 340.679 9.725C340.862 9.54167 341.087 9.45 341.354 9.45C341.62 9.45 341.845 9.54167 342.029 9.725C342.212 9.90833 342.304 10.1417 342.304 10.425C342.304 10.725 342.212 10.9667 342.029 11.15C341.845 11.3167 341.62 11.4 341.354 11.4ZM341.904 14.425V28H340.779V14.425H341.904ZM358.253 20.3C358.253 20.9 358.236 21.35 358.203 21.65H346.478C346.511 22.8667 346.778 23.8917 347.278 24.725C347.778 25.5583 348.436 26.1833 349.253 26.6C350.069 27.0167 350.961 27.225 351.928 27.225C353.261 27.225 354.378 26.9 355.278 26.25C356.178 25.5833 356.744 24.6833 356.978 23.55H358.153C357.886 24.9333 357.203 26.0583 356.103 26.925C355.003 27.775 353.611 28.2 351.928 28.2C350.661 28.2 349.528 27.9167 348.528 27.35C347.528 26.7833 346.744 25.975 346.178 24.925C345.611 23.8583 345.328 22.6167 345.328 21.2C345.328 19.7833 345.603 18.55 346.153 17.5C346.719 16.45 347.503 15.65 348.503 15.1C349.503 14.5333 350.644 14.25 351.928 14.25C353.228 14.25 354.353 14.5333 355.303 15.1C356.269 15.65 357.003 16.3917 357.503 17.325C358.003 18.2417 358.253 19.2333 358.253 20.3ZM357.128 20.725C357.178 19.525 356.961 18.5083 356.478 17.675C356.011 16.8417 355.369 16.225 354.553 15.825C353.736 15.4083 352.853 15.2 351.903 15.2C350.953 15.2 350.069 15.4083 349.253 15.825C348.453 16.225 347.794 16.8417 347.278 17.675C346.778 18.5083 346.511 19.525 346.478 20.725H357.128ZM367.778 14.15C369.394 14.15 370.711 14.65 371.728 15.65C372.744 16.6333 373.253 18.1 373.253 20.05V28H372.153V20.125C372.153 18.5083 371.744 17.275 370.928 16.425C370.111 15.5583 369.003 15.125 367.603 15.125C366.136 15.125 364.961 15.5917 364.078 16.525C363.211 17.4583 362.778 18.8417 362.778 20.675V28H361.653V14.425H362.778V17.3C363.161 16.2833 363.794 15.5083 364.678 14.975C365.578 14.425 366.611 14.15 367.778 14.15ZM376.529 21.2C376.529 19.8 376.804 18.575 377.354 17.525C377.92 16.475 378.695 15.6667 379.679 15.1C380.679 14.5333 381.812 14.25 383.079 14.25C384.462 14.25 385.662 14.6 386.679 15.3C387.695 15.9833 388.412 16.875 388.829 17.975V9.5H389.954V28H388.829V24.4C388.429 25.5167 387.729 26.4333 386.729 27.15C385.729 27.85 384.512 28.2 383.079 28.2C381.812 28.2 380.679 27.9167 379.679 27.35C378.695 26.7667 377.92 25.95 377.354 24.9C376.804 23.8333 376.529 22.6 376.529 21.2ZM388.829 21.2C388.829 20.0167 388.579 18.975 388.079 18.075C387.595 17.1583 386.929 16.4583 386.079 15.975C385.229 15.475 384.279 15.225 383.229 15.225C382.129 15.225 381.162 15.4667 380.329 15.95C379.495 16.4167 378.845 17.1 378.379 18C377.912 18.9 377.679 19.9667 377.679 21.2C377.679 22.4333 377.912 23.5 378.379 24.4C378.845 25.3 379.495 25.9917 380.329 26.475C381.179 26.9583 382.145 27.2 383.229 27.2C384.279 27.2 385.229 26.9583 386.079 26.475C386.945 25.975 387.62 25.275 388.104 24.375C388.587 23.4583 388.829 22.4 388.829 21.2Z" fill="#393E46"/>
<path d="M183.217 36.048C183.025 36.048 182.863 35.988 182.731 35.868C182.599 35.736 182.533 35.562 182.533 35.346C182.533 35.142 182.599 34.974 182.731 34.842C182.863 34.71 183.025 34.644 183.217 34.644C183.409 34.644 183.571 34.71 183.703 34.842C183.835 34.974 183.901 35.142 183.901 35.346C183.901 35.562 183.835 35.736 183.703 35.868C183.571 35.988 183.409 36.048 183.217 36.048ZM183.613 38.226V48H182.803V38.226H183.613ZM189.84 48.144C188.748 48.144 187.854 47.904 187.158 47.424C186.474 46.944 186.09 46.26 186.006 45.372H186.834C186.894 46.008 187.182 46.512 187.698 46.884C188.226 47.256 188.94 47.442 189.84 47.442C190.584 47.442 191.172 47.256 191.604 46.884C192.048 46.5 192.27 46.032 192.27 45.48C192.27 45.096 192.15 44.784 191.91 44.544C191.682 44.292 191.394 44.1 191.046 43.968C190.698 43.836 190.224 43.692 189.624 43.536C188.904 43.344 188.322 43.158 187.878 42.978C187.434 42.786 187.056 42.504 186.744 42.132C186.432 41.76 186.276 41.262 186.276 40.638C186.276 40.182 186.414 39.762 186.69 39.378C186.966 38.982 187.35 38.67 187.842 38.442C188.334 38.214 188.892 38.1 189.516 38.1C190.536 38.1 191.358 38.358 191.982 38.874C192.618 39.378 192.96 40.08 193.008 40.98H192.198C192.162 40.332 191.91 39.804 191.442 39.396C190.974 38.988 190.326 38.784 189.498 38.784C188.802 38.784 188.226 38.964 187.77 39.324C187.314 39.684 187.086 40.122 187.086 40.638C187.086 41.094 187.212 41.466 187.464 41.754C187.728 42.03 188.046 42.246 188.418 42.402C188.802 42.546 189.306 42.702 189.93 42.87C190.614 43.05 191.16 43.23 191.568 43.41C191.988 43.578 192.342 43.83 192.63 44.166C192.918 44.49 193.062 44.928 193.062 45.48C193.062 45.984 192.924 46.44 192.648 46.848C192.372 47.256 191.988 47.574 191.496 47.802C191.004 48.03 190.452 48.144 189.84 48.144ZM204.911 48.144C203.999 48.144 203.177 47.94 202.445 47.532C201.713 47.124 201.137 46.542 200.717 45.786C200.309 45.018 200.105 44.124 200.105 43.104C200.105 42.096 200.315 41.214 200.735 40.458C201.155 39.69 201.731 39.108 202.463 38.712C203.207 38.304 204.035 38.1 204.947 38.1C205.859 38.1 206.681 38.304 207.413 38.712C208.145 39.108 208.715 39.684 209.123 40.44C209.543 41.196 209.753 42.084 209.753 43.104C209.753 44.124 209.543 45.018 209.123 45.786C208.703 46.542 208.121 47.124 207.377 47.532C206.645 47.94 205.823 48.144 204.911 48.144ZM204.911 47.424C205.619 47.424 206.279 47.268 206.891 46.956C207.515 46.632 208.013 46.146 208.385 45.498C208.757 44.85 208.943 44.052 208.943 43.104C208.943 42.168 208.757 41.376 208.385 40.728C208.013 40.08 207.521 39.6 206.909 39.288C206.297 38.964 205.637 38.802 204.929 38.802C204.221 38.802 203.561 38.964 202.949 39.288C202.349 39.6 201.863 40.08 201.491 40.728C201.119 41.376 200.933 42.168 200.933 43.104C200.933 44.052 201.113 44.85 201.473 45.498C201.845 46.146 202.331 46.632 202.931 46.956C203.543 47.268 204.203 47.424 204.911 47.424ZM216.621 38.028C217.785 38.028 218.733 38.388 219.465 39.108C220.197 39.816 220.563 40.872 220.563 42.276V48H219.771V42.33C219.771 41.166 219.477 40.278 218.889 39.666C218.301 39.042 217.503 38.73 216.495 38.73C215.439 38.73 214.593 39.066 213.957 39.738C213.333 40.41 213.021 41.406 213.021 42.726V48H212.211V38.226H213.021V40.296C213.297 39.564 213.753 39.006 214.389 38.622C215.037 38.226 215.781 38.028 216.621 38.028ZM228.92 36.048C228.728 36.048 228.566 35.988 228.434 35.868C228.302 35.736 228.236 35.562 228.236 35.346C228.236 35.142 228.302 34.974 228.434 34.842C228.566 34.71 228.728 34.644 228.92 34.644C229.112 34.644 229.274 34.71 229.406 34.842C229.538 34.974 229.604 35.142 229.604 35.346C229.604 35.562 229.538 35.736 229.406 35.868C229.274 35.988 229.112 36.048 228.92 36.048ZM229.316 38.226V48H228.506V38.226H229.316ZM233.491 38.928V45.39C233.491 46.11 233.623 46.608 233.887 46.884C234.151 47.148 234.619 47.28 235.291 47.28H236.389V48H235.165C234.313 48 233.683 47.802 233.275 47.406C232.879 46.998 232.681 46.326 232.681 45.39V38.928H231.205V38.226H232.681V35.742H233.491V38.226H236.389V38.928H233.491ZM241.783 48.144C240.691 48.144 239.797 47.904 239.101 47.424C238.417 46.944 238.033 46.26 237.949 45.372H238.777C238.837 46.008 239.125 46.512 239.641 46.884C240.169 47.256 240.883 47.442 241.783 47.442C242.527 47.442 243.115 47.256 243.547 46.884C243.991 46.5 244.213 46.032 244.213 45.48C244.213 45.096 244.093 44.784 243.853 44.544C243.625 44.292 243.337 44.1 242.989 43.968C242.641 43.836 242.167 43.692 241.567 43.536C240.847 43.344 240.265 43.158 239.821 42.978C239.377 42.786 238.999 42.504 238.687 42.132C238.375 41.76 238.219 41.262 238.219 40.638C238.219 40.182 238.357 39.762 238.633 39.378C238.909 38.982 239.293 38.67 239.785 38.442C240.277 38.214 240.835 38.1 241.459 38.1C242.479 38.1 243.301 38.358 243.925 38.874C244.561 39.378 244.903 40.08 244.951 40.98H244.141C244.105 40.332 243.853 39.804 243.385 39.396C242.917 38.988 242.269 38.784 241.441 38.784C240.745 38.784 240.169 38.964 239.713 39.324C239.257 39.684 239.029 40.122 239.029 40.638C239.029 41.094 239.155 41.466 239.407 41.754C239.671 42.03 239.989 42.246 240.361 42.402C240.745 42.546 241.249 42.702 241.873 42.87C242.557 43.05 243.103 43.23 243.511 43.41C243.931 43.578 244.285 43.83 244.573 44.166C244.861 44.49 245.005 44.928 245.005 45.48C245.005 45.984 244.867 46.44 244.591 46.848C244.315 47.256 243.931 47.574 243.439 47.802C242.947 48.03 242.395 48.144 241.783 48.144ZM265.333 38.226L262.255 48H261.481L258.367 39.342L255.235 48H254.461L251.383 38.226H252.229L254.857 47.082L257.989 38.226H258.763L261.877 47.046L264.505 38.226H265.333ZM266.603 43.104C266.603 42.096 266.801 41.214 267.197 40.458C267.605 39.702 268.163 39.12 268.871 38.712C269.591 38.304 270.407 38.1 271.319 38.1C272.351 38.1 273.227 38.352 273.947 38.856C274.667 39.36 275.171 40.002 275.459 40.782V38.226H276.269V48H275.459V45.426C275.171 46.218 274.661 46.872 273.929 47.388C273.209 47.892 272.339 48.144 271.319 48.144C270.407 48.144 269.591 47.94 268.871 47.532C268.163 47.112 267.605 46.524 267.197 45.768C266.801 45 266.603 44.112 266.603 43.104ZM275.459 43.104C275.459 42.252 275.279 41.502 274.919 40.854C274.571 40.194 274.091 39.69 273.479 39.342C272.867 38.982 272.183 38.802 271.427 38.802C270.635 38.802 269.939 38.976 269.339 39.324C268.739 39.66 268.271 40.152 267.935 40.8C267.599 41.448 267.431 42.216 267.431 43.104C267.431 43.992 267.599 44.76 267.935 45.408C268.271 46.056 268.739 46.554 269.339 46.902C269.951 47.25 270.647 47.424 271.427 47.424C272.183 47.424 272.867 47.25 273.479 46.902C274.103 46.542 274.589 46.038 274.937 45.39C275.285 44.73 275.459 43.968 275.459 43.104ZM286.851 38.226L281.163 52.59H280.335L282.153 48L278.049 38.226H278.931L282.603 47.1L286.023 38.226H286.851ZM294.944 38.928V45.39C294.944 46.11 295.076 46.608 295.34 46.884C295.604 47.148 296.072 47.28 296.744 47.28H297.842V48H296.618C295.766 48 295.136 47.802 294.728 47.406C294.332 46.998 294.134 46.326 294.134 45.39V38.928H292.658V38.226H294.134V35.742H294.944V38.226H297.842V38.928H294.944ZM304.28 48.144C303.368 48.144 302.546 47.94 301.814 47.532C301.082 47.124 300.506 46.542 300.086 45.786C299.678 45.018 299.474 44.124 299.474 43.104C299.474 42.096 299.684 41.214 300.104 40.458C300.524 39.69 301.1 39.108 301.832 38.712C302.576 38.304 303.404 38.1 304.316 38.1C305.228 38.1 306.05 38.304 306.782 38.712C307.514 39.108 308.084 39.684 308.492 40.44C308.912 41.196 309.122 42.084 309.122 43.104C309.122 44.124 308.912 45.018 308.492 45.786C308.072 46.542 307.49 47.124 306.746 47.532C306.014 47.94 305.192 48.144 304.28 48.144ZM304.28 47.424C304.988 47.424 305.648 47.268 306.26 46.956C306.884 46.632 307.382 46.146 307.754 45.498C308.126 44.85 308.312 44.052 308.312 43.104C308.312 42.168 308.126 41.376 307.754 40.728C307.382 40.08 306.89 39.6 306.278 39.288C305.666 38.964 305.006 38.802 304.298 38.802C303.59 38.802 302.93 38.964 302.318 39.288C301.718 39.6 301.232 40.08 300.86 40.728C300.488 41.376 300.302 42.168 300.302 43.104C300.302 44.052 300.482 44.85 300.842 45.498C301.214 46.146 301.7 46.632 302.3 46.956C302.912 47.268 303.572 47.424 304.28 47.424ZM324.292 38.226L318.604 52.59H317.776L319.594 48L315.49 38.226H316.372L320.044 47.1L323.464 38.226H324.292ZM330.401 48.144C329.489 48.144 328.667 47.94 327.935 47.532C327.203 47.124 326.627 46.542 326.207 45.786C325.799 45.018 325.595 44.124 325.595 43.104C325.595 42.096 325.805 41.214 326.225 40.458C326.645 39.69 327.221 39.108 327.953 38.712C328.697 38.304 329.525 38.1 330.437 38.1C331.349 38.1 332.171 38.304 332.903 38.712C333.635 39.108 334.205 39.684 334.613 40.44C335.033 41.196 335.243 42.084 335.243 43.104C335.243 44.124 335.033 45.018 334.613 45.786C334.193 46.542 333.611 47.124 332.867 47.532C332.135 47.94 331.313 48.144 330.401 48.144ZM330.401 47.424C331.109 47.424 331.769 47.268 332.381 46.956C333.005 46.632 333.503 46.146 333.875 45.498C334.247 44.85 334.433 44.052 334.433 43.104C334.433 42.168 334.247 41.376 333.875 40.728C333.503 40.08 333.011 39.6 332.399 39.288C331.787 38.964 331.127 38.802 330.419 38.802C329.711 38.802 329.051 38.964 328.439 39.288C327.839 39.6 327.353 40.08 326.981 40.728C326.609 41.376 326.423 42.168 326.423 43.104C326.423 44.052 326.603 44.85 326.963 45.498C327.335 46.146 327.821 46.632 328.421 46.956C329.033 47.268 329.693 47.424 330.401 47.424ZM345.963 38.226V48H345.153V45.876C344.877 46.62 344.415 47.19 343.767 47.586C343.131 47.97 342.399 48.162 341.571 48.162C340.407 48.162 339.453 47.808 338.709 47.1C337.977 46.38 337.611 45.318 337.611 43.914V38.226H338.403V43.86C338.403 45.024 338.697 45.918 339.285 46.542C339.873 47.154 340.671 47.46 341.679 47.46C342.735 47.46 343.575 47.124 344.199 46.452C344.835 45.78 345.153 44.784 345.153 43.464V38.226H345.963ZM349.726 40.242C349.966 39.522 350.392 38.976 351.004 38.604C351.616 38.22 352.396 38.028 353.344 38.028V38.874H353.074C352.114 38.874 351.316 39.15 350.68 39.702C350.044 40.242 349.726 41.13 349.726 42.366V48H348.916V38.226H349.726V40.242Z" fill="#393E46"/>
<g clip-path="url(#clip0_33_173)">
<path d="M428.003 81.1845L390.919 50.09C387.664 47.3603 382.336 47.3603 379.081 50.09L341.997 81.1845C338.741 83.9142 339.553 86.1476 343.802 86.1476H352.686C352.686 86.1476 353.586 86.1876 353.586 87C353.586 95.1946 353.586 119.778 353.586 119.778C353.586 123.19 356.353 125.957 359.766 125.957H410.234C413.647 125.957 416.413 123.191 416.413 119.778C416.413 119.778 416.413 95.1483 416.413 86.9388C416.413 86.1878 417.229 86.1478 417.229 86.1478H426.198C430.447 86.1476 431.259 83.9142 428.003 81.1845ZM400.61 102.947C398.111 106.749 387.349 115.789 385.016 115.789C382.733 115.789 371.873 106.716 369.39 102.947C368.146 101.061 367.264 98.9781 367.41 96.2414C367.67 91.3968 371.631 87.3957 376.482 87.3957C381.469 87.396 384.374 92.717 385 92.7173C385.717 92.7173 388.745 87.3957 393.519 87.396C398.37 87.3957 402.331 91.3963 402.59 96.2412C402.737 98.9781 401.857 101.052 400.61 102.947Z" fill="#CF8E8E"/>
</g>
<defs>
<clipPath id="clip0_33_173">
<rect width="90" height="90" fill="white" transform="translate(340 42)"/>
</clipPath>
</defs>
</svg>
