<svg width="30" height="27" viewBox="0 0 30 27" fill="none" xmlns="http://www.w3.org/2000/svg">
<path d="M13.2715 3.94334C14.1094 6.45701 13.2539 8.99412 11.3613 9.61522C9.46875 10.2363 7.25391 8.70115 6.41602 6.18748C5.57813 3.67381 6.4336 1.1367 8.32617 0.515606C10.2188 -0.105488 12.4336 1.42967 13.2715 3.94334ZM5.88281 10.1367C6.99024 12.0351 6.7207 14.2441 5.28516 15.0644C3.84961 15.8847 1.78711 15.0117 0.685549 13.1133C-0.416014 11.2148 -0.158201 9.00584 1.27735 8.18553C2.71289 7.36522 4.77539 8.23826 5.87696 10.1367H5.88281ZM4.05469 22.0078C7.125 13.7285 12.5801 11.625 15 11.625C17.4199 11.625 22.875 13.7285 25.9453 22.0078C26.1563 22.5762 26.25 23.1855 26.25 23.7949V23.8887C26.25 25.4004 25.0254 26.625 23.5137 26.625C22.8398 26.625 22.1719 26.5429 21.5215 26.3789L16.3652 25.0898C15.4688 24.8672 14.5313 24.8672 13.6348 25.0898L8.47852 26.3789C7.82813 26.5429 7.16016 26.625 6.48633 26.625C4.97461 26.625 3.75 25.4004 3.75 23.8887V23.7949C3.75 23.1855 3.84375 22.5762 4.05469 22.0078ZM24.7148 15.0644C23.2793 14.2441 23.0098 12.0351 24.1172 10.1367C25.2246 8.23826 27.2813 7.36522 28.7168 8.18553C30.1523 9.00584 30.4219 11.2148 29.3145 13.1133C28.207 15.0117 26.1504 15.8847 24.7148 15.0644ZM18.1699 9.61522C16.2773 8.99412 15.4219 6.45701 16.2598 3.94334C17.0977 1.42967 19.3125 -0.105488 21.2051 0.515606C23.0977 1.1367 23.9531 3.67381 23.1152 6.18748C22.2773 8.70115 20.0625 10.2363 18.1699 9.61522Z" fill="#AACB73"/>
</svg>
