<svg width="23" height="18" viewBox="0 0 23 18" fill="none" xmlns="http://www.w3.org/2000/svg">
<path d="M19.7554 4.45304C19.7693 4.64846 19.7693 4.84393 19.7693 5.03935C19.7693 11 15.2325 17.8681 6.94061 17.8681C4.38602 17.8681 2.01293 17.1282 0.0167236 15.844C0.379682 15.8858 0.728633 15.8998 1.10556 15.8998C3.2134 15.8998 5.15379 15.1879 6.70329 13.9734C4.72105 13.9315 3.05987 12.6333 2.48752 10.8465C2.76673 10.8883 3.0459 10.9163 3.33908 10.9163C3.74389 10.9163 4.14874 10.8604 4.52562 10.7627C2.45964 10.3439 0.91009 8.5292 0.91009 6.33757V6.28176C1.51032 6.61678 2.20835 6.82617 2.94815 6.85406C1.73368 6.0444 0.93802 4.66243 0.93802 3.09896C0.93802 2.26141 1.16133 1.49364 1.55222 0.823585C3.77178 3.55963 7.1081 5.34641 10.8492 5.54187C10.7794 5.20685 10.7375 4.8579 10.7375 4.5089C10.7375 2.02409 12.7477 0 15.2464 0C16.5446 0 17.7172 0.544416 18.5408 1.42386C19.5598 1.22844 20.537 0.851515 21.4025 0.335029C21.0675 1.38201 20.3555 2.26145 19.4203 2.81979C20.3277 2.72212 21.2071 2.4708 22.0167 2.12185C21.4026 3.01522 20.6348 3.81087 19.7554 4.45304Z" fill="#AACB73"/>
</svg>
