<svg width="20" height="23" viewBox="0 0 20 23" fill="none" xmlns="http://www.w3.org/2000/svg">
<g clip-path="url(#clip0_33_24)">
<path d="M10 11.5C11.5155 11.5 12.969 10.8979 14.0406 9.82631C15.1122 8.75467 15.7143 7.30122 15.7143 5.7857C15.7143 4.27017 15.1122 2.81672 14.0406 1.74509C12.969 0.67345 11.5155 0.0714111 10 0.0714111C8.48448 0.0714111 7.03103 0.67345 5.95939 1.74509C4.88775 2.81672 4.28571 4.27017 4.28571 5.7857C4.28571 7.30122 4.88775 8.75467 5.95939 9.82631C7.03103 10.8979 8.48448 11.5 10 11.5ZM7.95982 13.6428C3.5625 13.6428 0 17.2053 0 21.6027C0 22.3348 0.59375 22.9286 1.32589 22.9286H18.6741C19.4062 22.9286 20 22.3348 20 21.6027C20 17.2053 16.4375 13.6428 12.0402 13.6428H7.95982Z" fill="#CF8E8E"/>
</g>
<defs>
<clipPath id="clip0_33_24">
<rect width="20" height="22.8571" fill="white" transform="translate(0 0.0714111)"/>
</clipPath>
</defs>
</svg>
