<svg width="24" height="25" viewBox="0 0 24 25" fill="none" xmlns="http://www.w3.org/2000/svg">
<path fill-rule="evenodd" clip-rule="evenodd" d="M3.75 5H20.25C20.4489 5 20.6396 5.0791 20.7803 5.21973C20.9209 5.36035 21 5.55115 21 5.75V19.25C21 19.4489 20.9209 19.6396 20.7803 19.7803C20.6396 19.9209 20.4489 20 20.25 20H3.75C3.55115 20 3.36035 19.9209 3.21973 19.7803C3.0791 19.6396 3 19.4489 3 19.25V5.75C3 5.55115 3.0791 5.36035 3.21973 5.21973C3.36035 5.0791 3.55115 5 3.75 5ZM7.38428 13.6208C7.75433 13.868 8.18939 14 8.63434 14C8.93024 14.0013 9.22339 13.944 9.49695 13.8312C9.77051 13.7186 10.019 13.5529 10.2281 13.3438C10.4374 13.1346 10.6029 12.886 10.7157 12.6124C10.8283 12.3391 10.8856 12.0459 10.8843 11.75C10.8843 11.3051 10.7525 10.87 10.5051 10.4999C10.2579 10.1299 9.90656 9.84149 9.49548 9.6712C9.08423 9.50092 8.63196 9.45642 8.19543 9.54321C7.75891 9.63 7.35809 9.84442 7.04333 10.159C6.72876 10.4738 6.51434 10.8746 6.42755 11.3111C6.34076 11.7474 6.38544 12.1999 6.55573 12.611C6.72601 13.0222 7.0144 13.3736 7.38428 13.6208Z" fill="url(#paint0_linear_87_2600)"/>
<path d="M14.25 11.75H18C18.4142 11.75 18.75 11.4142 18.75 11C18.75 10.5858 18.4142 10.25 18 10.25H14.25C13.8358 10.25 13.5 10.5858 13.5 11C13.5 11.4142 13.8358 11.75 14.25 11.75Z" fill="#393E46"/>
<path d="M14.25 14.75H18C18.4142 14.75 18.75 14.4142 18.75 14C18.75 13.5858 18.4142 13.25 18 13.25H14.25C13.8358 13.25 13.5 13.5858 13.5 14C13.5 14.4142 13.8358 14.75 14.25 14.75Z" fill="#393E46"/>
<path fill-rule="evenodd" clip-rule="evenodd" d="M8.63437 8.75C8.63437 8.75 9.87701 8.75 10.7557 9.62868C10.7557 9.62868 11.6344 10.5074 11.6344 11.75C11.6344 11.75 11.6344 12.9926 10.7557 13.8713C10.7557 13.8713 9.87701 14.75 8.63437 14.75C8.63437 14.75 7.39173 14.75 6.51305 13.8713C6.51305 13.8713 5.63437 12.9926 5.63437 11.75C5.63437 11.75 5.63437 10.5074 6.51305 9.62868C6.51305 9.62868 7.39173 8.75 8.63437 8.75ZM8.63437 10.25C8.63437 10.25 8.01305 10.25 7.57371 10.6893C7.57371 10.6893 7.13437 11.1287 7.13437 11.75C7.13437 11.75 7.13437 12.3713 7.57371 12.8107C7.57371 12.8107 8.01305 13.25 8.63437 13.25C8.63437 13.25 9.25569 13.25 9.69503 12.8107C9.69503 12.8107 10.1344 12.3713 10.1344 11.75C10.1344 11.75 10.1344 11.1287 9.69503 10.6893C9.69503 10.6893 9.25569 10.25 8.63437 10.25Z" fill="#393E46"/>
<path d="M10.014 15.2168C10.6223 15.6889 10.8137 16.4346 10.8137 16.4346L10.8139 16.4353L10.8141 16.4361C10.899 16.7679 11.1981 17 11.5406 17L11.5557 16.9999C11.6134 16.9987 11.6708 16.9909 11.7266 16.9766C12.0585 16.8916 12.2906 16.5926 12.2906 16.25L12.2905 16.2349C12.2893 16.1773 12.2815 16.1199 12.2672 16.064C11.9485 14.8195 10.9338 14.0318 10.9338 14.0318C9.91898 13.2441 8.63437 13.2441 8.63437 13.2441C7.34975 13.2441 6.33497 14.0318 6.33497 14.0318C5.32019 14.8195 5.00156 16.064 5.00156 16.064C4.98599 16.1248 4.97812 16.1873 4.97812 16.25C4.97812 16.2607 4.97835 16.2714 4.9788 16.282C4.98408 16.4055 5.01981 16.5259 5.08282 16.6322C5.18419 16.8034 5.34939 16.9272 5.54209 16.9766C5.60287 16.9921 5.66537 17 5.72812 17C5.73879 17 5.74945 16.9998 5.76011 16.9993C5.88364 16.9941 6.00395 16.9583 6.11033 16.8953C6.28148 16.794 6.40534 16.6287 6.45468 16.4361C6.64586 15.6894 7.25473 15.2168 7.25473 15.2168C7.8636 14.7441 8.63437 14.7441 8.63437 14.7441C9.40514 14.7441 10.014 15.2168 10.014 15.2168Z" fill="#393E46"/>
<path fill-rule="evenodd" clip-rule="evenodd" d="M2.25 5.75C2.25 5.75 2.25 5.12868 2.68934 4.68934C2.68934 4.68934 3.12868 4.25 3.75 4.25H20.25C20.25 4.25 20.8713 4.25 21.3107 4.68934C21.3107 4.68934 21.75 5.12868 21.75 5.75V19.25C21.75 19.25 21.75 19.8713 21.3107 20.3107C21.3107 20.3107 20.8713 20.75 20.25 20.75H3.75C3.75 20.75 3.12868 20.75 2.68934 20.3107C2.68934 20.3107 2.25 19.8713 2.25 19.25V5.75ZM3.75 5.75V19.25H20.25V5.75H3.75Z" fill="#393E46"/>
<defs>
<linearGradient id="paint0_linear_87_2600" x1="12" y1="11.167" x2="12" y2="20" gradientUnits="userSpaceOnUse">
<stop stop-color="#FFFCFA"/>
<stop offset="1" stop-color="#FFE8E8"/>
</linearGradient>
</defs>
</svg>
