<svg width="24" height="24" viewBox="0 0 24 24" fill="none" xmlns="http://www.w3.org/2000/svg">
<path d="M15.3656 7.50928C15.6227 8.2282 15.7528 8.98639 15.75 9.74989C15.75 11.5401 15.0388 13.257 13.7729 14.5229C12.5071 15.7887 10.7902 16.4999 8.99998 16.4999H8.63437C9.09973 17.8162 9.96184 18.9558 11.1019 19.7617C12.242 20.5676 13.6039 21.0002 15 20.9999H21.1875C21.3367 20.9999 21.4798 20.9406 21.5852 20.8351C21.6908 20.7297 21.75 20.5866 21.75 20.4374V14.2499C21.7524 12.5222 21.0914 10.8596 19.9033 9.60522C18.7152 8.35088 17.0909 7.60058 15.3656 7.50928Z" fill="#FFD4D4"/>
<path fill-rule="evenodd" clip-rule="evenodd" d="M11.8701 2.8209C11.8701 2.8209 10.4918 2.25 9 2.25H8.99946C8.99946 2.25 7.50791 2.2501 6.12987 2.8209C6.12987 2.8209 4.75159 3.39181 3.6967 4.4467C3.6967 4.4467 2.64181 5.50159 2.0709 6.87987C2.0709 6.87987 1.5 8.25816 1.5 9.75V15.9375C1.5 15.9375 1.5 16.4812 1.88442 16.8656C1.88442 16.8656 2.26885 17.25 2.8125 17.25H9C9 17.25 10.4918 17.25 11.8701 16.6791C11.8701 16.6791 13.2484 16.1082 14.3033 15.0533C14.3033 15.0533 15.3582 13.9984 15.9291 12.6201C15.9291 12.6201 16.5 11.2418 16.5 9.75C16.5 9.75 16.5 8.25816 15.9291 6.87987C15.9291 6.87987 15.3582 5.50159 14.3033 4.4467C14.3033 4.4467 13.2484 3.39181 11.8701 2.8209ZM15 9.75C15 9.75 15 8.55653 14.5433 7.4539C14.5433 7.4539 14.0866 6.35127 13.2426 5.50736C13.2426 5.50736 12.3987 4.66345 11.2961 4.20672C11.2961 4.20672 10.1937 3.75009 9.00049 3.75L9 3.75C9 3.75 7.80653 3.75 6.7039 4.20672C6.7039 4.20672 5.60127 4.66345 4.75736 5.50736C4.75736 5.50736 3.91345 6.35127 3.45672 7.4539C3.45672 7.4539 3 8.55653 3 9.75L3 15.75H9C9 15.75 10.1935 15.75 11.2961 15.2933C11.2961 15.2933 12.3987 14.8366 13.2426 13.9926C13.2426 13.9926 14.0866 13.1487 14.5433 12.0461C14.5433 12.0461 15 10.9435 15 9.75Z" fill="#393E46"/>
<path d="M15.4053 6.76033C15.3921 6.75963 15.3788 6.75928 15.3656 6.75928C15.3331 6.75928 15.3006 6.76139 15.2683 6.76562C14.9098 6.81253 14.6358 7.10857 14.6167 7.46964C14.616 7.48284 14.6156 7.49606 14.6156 7.50928C14.6156 7.52019 14.6159 7.5311 14.6163 7.542C14.6239 7.71578 14.6917 7.88151 14.808 8.01084C14.941 8.15873 15.1273 8.24772 15.326 8.25823C17.7142 8.38462 19.3588 10.121 19.3588 10.121C21.0033 11.8573 21 14.2489 21 14.2489V20.2499H15C13.0924 20.2504 11.5348 19.1493 11.5348 19.1493C9.97752 18.0484 9.34167 16.2504 9.34167 16.2504L9.34148 16.2499C9.23553 15.9502 8.95221 15.7499 8.63437 15.7499L8.62517 15.75C8.5431 15.751 8.46175 15.7654 8.38437 15.7928C8.19683 15.8591 8.04332 15.9972 7.95759 16.1767C7.90939 16.2776 7.88437 16.388 7.88437 16.4999L7.88455 16.5162C7.88627 16.5959 7.90069 16.6748 7.92726 16.7499C8.72202 18.9978 10.669 20.3742 10.669 20.3742C12.6159 21.7505 15 21.7499 15 21.7499H21.1875C21.7312 21.7499 22.1156 21.3655 22.1156 21.3655C22.5 20.9811 22.5 20.4374 22.5 20.4374V14.251C22.502 12.811 21.97 11.473 21.97 11.473C21.438 10.1349 20.4478 9.08947 20.4478 9.08947C19.4576 8.04403 18.1504 7.44023 18.1504 7.44023C16.8434 6.83654 15.4058 6.76035 15.4058 6.76035L15.4053 6.76033Z" fill="#393E46"/>
</svg>
