<svg width="24" height="25" viewBox="0 0 24 25" fill="none" xmlns="http://www.w3.org/2000/svg">
<path d="M21 5.75H15C14.2044 5.75 13.4413 6.06604 12.8787 6.62872C12.3161 7.19122 12 7.95441 12 8.75C12 7.95441 11.6839 7.19122 11.1213 6.62872C10.5587 6.06604 9.79564 5.75 9 5.75H3C2.8011 5.75 2.61031 5.8291 2.46968 5.96973C2.32901 6.11035 2.25 6.30115 2.25 6.5V18.5C2.25 18.6989 2.32901 18.8896 2.46968 19.0303C2.61031 19.1709 2.8011 19.25 3 19.25H9C9.79564 19.25 10.5587 19.566 11.1213 20.1287C11.6839 20.6912 12 21.4544 12 22.25C12 21.4544 12.3161 20.6912 12.8787 20.1287C13.4413 19.566 14.2044 19.25 15 19.25H21C21.1989 19.25 21.3897 19.1709 21.5303 19.0303C21.671 18.8896 21.75 18.6989 21.75 18.5V6.5C21.75 6.30115 21.671 6.11035 21.5303 5.96973C21.3897 5.8291 21.1989 5.75 21 5.75Z" fill="url(#paint0_linear_87_2603)"/>
<path d="M12.3484 19.5983C11.25 20.6967 11.25 22.25 11.25 22.25C11.25 22.6642 11.5858 23 12 23C12.4142 23 12.75 22.6642 12.75 22.25C12.75 21.318 13.409 20.659 13.409 20.659C14.068 20 15 20 15 20H21C21.6213 20 22.0607 19.5607 22.0607 19.5607C22.5 19.1213 22.5 18.5 22.5 18.5V6.5C22.5 5.87868 22.0607 5.43934 22.0607 5.43934C21.6213 5 21 5 21 5H15C13.4467 5 12.3484 6.09835 12.3484 6.09835C11.25 7.1967 11.25 8.75 11.25 8.75C11.25 9.16421 11.5858 9.5 12 9.5C12.1989 9.5 12.3897 9.42098 12.5303 9.28033C12.671 9.13968 12.75 8.94891 12.75 8.75C12.75 7.81802 13.409 7.15901 13.409 7.15901C14.068 6.5 15 6.5 15 6.5H21V18.5H15C13.4467 18.5 12.3484 19.5983 12.3484 19.5983Z" fill="#393E46"/>
<path fill-rule="evenodd" clip-rule="evenodd" d="M1.5 6.5C1.5 6.5 1.5 5.87868 1.93934 5.43934C1.93934 5.43934 2.37868 5 3 5H9C9 5 10.5533 5 11.6517 6.09835C11.6517 6.09835 12.75 7.1967 12.75 8.75V22.25C12.75 22.6642 12.4142 23 12 23C11.5858 23 11.25 22.6642 11.25 22.25C11.25 22.25 11.25 21.318 10.591 20.659C10.591 20.659 9.93198 20 9 20H3C3 20 2.37868 20 1.93934 19.5607C1.93934 19.5607 1.5 19.1213 1.5 18.5V6.5ZM11.25 8.75V19.245C11.25 19.245 10.2793 18.5 9 18.5H3V6.5H9C9 6.5 9.93198 6.5 10.591 7.15901C10.591 7.15901 11.25 7.81802 11.25 8.75Z" fill="#393E46"/>
<defs>
<linearGradient id="paint0_linear_87_2603" x1="12" y1="12.5337" x2="12" y2="22.25" gradientUnits="userSpaceOnUse">
<stop stop-color="#FFFCFA"/>
<stop offset="1" stop-color="#FFE8E8"/>
</linearGradient>
</defs>
</svg>
